PathFileType	4	(X/Y/Z)	C:/Users/opensim2020/Desktop/walking_exp_matlab/subject01_walking11_straight_03.trc																																																																																																																																		
DataRate	CameraRate	NumFrames	NumMarkers	Units	OrigDataRate	OrigDataStartFrame	OrigNumFrames																																																																																																																														
100	100	8	44	mm	100	3081	338																																																																																																																														
Frame#	Time	LFHD			RFHD			LBHD			RBHD			C7			T10			CLAV			STRN			RBAK			LSHO			LUPA			LELB			LFRM			LWRA			LWRB			LFIN			RSHO			RUPA			RELB			RFRM			RWRA			RWRB			RFIN			LASI			RASI			LPSI			RPSI			LTHI			LKNE			LTIB			LANK			LHEE			LTOE			RTHI			RKNE			RTIB			RANK			RHEE			RTOE			*39			*40			*41			*42			*43		
		X1	Y1	Z1	X2	Y2	Z2	X3	Y3	Z3	X4	Y4	Z4	X5	Y5	Z5	X6	Y6	Z6	X7	Y7	Z7	X8	Y8	Z8	X9	Y9	Z9	X10	Y10	Z10	X11	Y11	Z11	X12	Y12	Z12	X13	Y13	Z13	X14	Y14	Z14	X15	Y15	Z15	X16	Y16	Z16	X17	Y17	Z17	X18	Y18	Z18	X19	Y19	Z19	X20	Y20	Z20	X21	Y21	Z21	X22	Y22	Z22	X23	Y23	Z23	X24	Y24	Z24	X25	Y25	Z25	X26	Y26	Z26	X27	Y27	Z27	X28	Y28	Z28	X29	Y29	Z29	X30	Y30	Z30	X31	Y31	Z31	X32	Y32	Z32	X33	Y33	Z33	X34	Y34	Z34	X35	Y35	Z35	X36	Y36	Z36	X37	Y37	Z37	X38	Y38	Z38	X39	Y39	Z39	X40	Y40	Z40	X41	Y41	Z41	X42	Y42	Z42	X43	Y43	Z43	X44	Y44	Z44
																																																																																																																																					
254	2.53	652.11859	1672.08337	1358.9574	696.81677	1679.19653	1463.74121	541.38147	1631.07178	1400.96997	585.82843	1637.67236	1512.16064	516.19006	1430.40601	1434.09204	491.07562	1136.44092	1447.01233	661.51776	1369.43726	1424.72864	711.25085	1215.62183	1420.71863	471.19479	1235.64709	1517.65369	590.85999	1396.51111	1268.15308	555.19067	1209.61426	1191.01965	542.48322	1059.5249	1197.19202	575.68561	951.27679	1170.87122	652.86816	833.61731	1185.17542	596.40637	830.80316	1163.76331	642.68555	758.86877	1153.37366	604.39941	1396.43665	1578.7572	568.76483	1196.61658	1688.70508	581.30389	1071.46667	1693.63501	630.72894	960.41614	1722.87219	730.03186	860.38269	1699.61523	689.48297	853.55414	1741.11963	739.53284	782.22266	1734.85437	668.89325	934.07605	1340.09021	667.34393	931.13715	1555.79663	481.20673	946.27472	1388.98572	482.57272	950.65814	1534.37097	686.56018	610.28003	1282.97192	704.08167	478.32513	1302.42725	677.35248	289.79495	1292.82886	679.06641	73.01276	1347.91516	638.05261	42.54085	1402.77344	825.92151	40.72669	1334.24036	593.36737	597.77161	1616.93909	580.74097	437.78748	1601.99487	446.13995	320.5961	1610.93555	318.77951	153.81044	1572.62	259.75711	149.845	1521.84241	403.51682	36.873	1558.53723	679.505	1712.61523	1443.7771	1973.06335	1023.41724	-3101.99854	2012.46411	1022.0849	-3140.66675	NaN	NaN	NaN	NaN	NaN	NaN
255	2.54	658.49646	1672.54895	1356.57532	703.18958	1679.66455	1461.40344	547.74847	1631.573	1398.6311	592.2052	1638.20422	1509.83289	522.49182	1430.91748	1431.77344	496.99118	1137.05884	1444.57935	667.71796	1369.89954	1422.50647	717.37201	1216.02258	1418.46655	477.17377	1236.26965	1515.21252	597.2406	1397.07275	1265.98657	562.08716	1210.21484	1188.58716	550.00568	1059.80273	1194.67542	584.46442	951.85638	1168.55859	662.7749	835.10791	1183.50769	606.49365	831.67102	1161.77808	653.6377	760.14484	1151.88501	610.61914	1397.10913	1576.66187	574.42841	1197.36316	1686.43799	586.44641	1072.32349	1691.58826	634.74756	960.96051	1721.11646	733.00513	859.79828	1698.29443	692.40826	853.6568	1739.96179	741.60144	781.495	1733.65552	674.84564	934.3446	1338.12451	672.90717	931.854	1553.6311	486.83566	946.75641	1386.8656	488.34665	950.70502	1532.3374	690.19501	609.97113	1281.50916	706.95502	478.02393	1301.1449	678.31555	289.49036	1292.53345	679.22314	72.93407	1347.98511	638.1405	42.67485	1402.87439	826.13892	40.42358	1334.24072	604.87207	597.76062	1616.38928	594.20544	437.78656	1601.38464	457.8847	323.05911	1610.27808	327.53918	159.07346	1572.49463	268.52188	157.11984	1521.46521	405.67188	37.72285	1558.02515	685.90167	1713.07727	1441.39844	1972.94031	1023.8736	-3102.08691	2012.5498	1022.14453	-3140.80615	NaN	NaN	NaN	NaN	NaN	NaN
256	2.55	664.77649	1672.85046	1354.36548	709.54938	1680.06299	1459.16077	554.0517	1631.97986	1396.40637	598.56561	1638.65503	1507.61719	528.67804	1431.52026	1429.62585	502.75739	1137.70349	1442.18481	673.98901	1370.2627	1420.46753	723.48901	1216.33704	1416.44031	483.13974	1236.85535	1512.85242	603.64447	1397.55872	1263.91443	569.20667	1210.68091	1186.18713	557.58044	1060.1156	1192.15881	593.13348	952.4115	1166.27588	672.69916	836.54272	1181.87256	616.66925	832.4657	1159.73096	664.76196	761.53369	1150.30371	616.73627	1397.50781	1574.35718	579.92456	1197.95337	1684.18555	591.4978	1073.05688	1689.52576	638.72388	961.42426	1719.39075	735.95807	859.15564	1697.03137	695.32996	853.56189	1738.61157	743.69006	780.87268	1732.61963	680.57635	934.58325	1336.25525	678.59839	932.58551	1551.89673	492.60678	947.06848	1385.06091	493.90741	950.54663	1530.56946	693.69214	609.72961	1280.14978	709.74542	477.62982	1299.92163	679.51184	289.29608	1292.07495	679.63098	72.95225	1348.16516	638.15771	42.59853	1402.93103	826.29382	40.15813	1334.19556	616.33899	597.69714	1615.79138	608.13495	438.1297	1601.07959	470.19427	325.48413	1609.66028	336.95844	164.25783	1572.21411	277.83963	164.22356	1521.20142	408.9917	39.46487	1557.6864	692.25861	1713.46802	1439.10803	1973.14197	1023.47491	-3101.89819	2012.44556	1021.94629	-3140.61401	NaN	NaN	NaN	NaN	NaN	NaN
257	2.56	670.99249	1673.0387	1352.39868	715.88086	1680.41675	1456.97534	560.3902	1632.33289	1394.27271	604.86865	1639.01868	1505.46106	534.94659	1431.9563	1427.38916	508.54254	1138.16089	1439.87622	680.20422	1370.53748	1418.48315	729.4538	1216.51074	1414.51428	489.03931	1237.32898	1510.53064	610.04883	1397.85474	1261.85913	576.4223	1211.0636	1183.82458	565.20038	1060.3031	1189.46997	602.06201	952.90948	1163.92126	682.70026	837.91882	1180.24841	626.88397	833.18225	1157.61938	675.60034	762.48273	1148.52246	622.8562	1398.0863	1572.52637	585.36884	1198.49402	1681.97217	596.40155	1073.66821	1687.49634	642.64246	961.77228	1717.63586	738.91693	858.4826	1695.73315	698.17328	853.53223	1737.43872	745.72046	780.13342	1731.53552	686.09784	934.76172	1334.43713	684.1084	933.15137	1550.12244	498.17685	947.23395	1383.31274	499.29514	950.1626	1528.91296	697.2088	609.42651	1278.7522	712.57263	477.31473	1298.82568	680.76807	289.07443	1291.65881	679.77032	72.85007	1348.25708	638.1944	42.60926	1402.97534	826.51624	40.01473	1334.23645	627.66309	597.69135	1615.08057	621.56482	437.67126	1599.74121	482.92456	327.79257	1609.01904	346.52405	169.28181	1571.71155	287.42487	170.96202	1520.54016	414.72333	42.51204	1557.88757	698.60852	1713.7915	1436.91321	1973.17883	1023.4541	-3101.83618	2012.56689	1022.00549	-3140.7041	NaN	NaN	NaN	NaN	NaN	NaN
258	2.57	677.42645	1673.33411	1349.97546	722.21136	1680.65112	1454.87817	566.74072	1632.57324	1392.19629	611.18512	1639.32593	1503.39075	541.11053	1432.36121	1425.32703	514.11053	1138.61963	1437.77795	686.34827	1370.70703	1416.59851	735.29559	1216.56189	1412.66956	494.82227	1237.79688	1508.35681	616.50537	1398.09204	1259.93445	583.81036	1211.28821	1181.37085	572.92352	1060.43091	1186.81494	610.96503	953.29425	1161.58154	692.74286	839.20099	1178.54688	637.19305	833.86115	1155.47998	686.77716	763.76599	1146.81104	628.81189	1398.4043	1570.48291	590.52386	1198.84143	1679.77466	601.17572	1074.1532	1685.43323	646.51111	962.06683	1715.96252	741.76373	857.74243	1694.51563	700.90729	853.20532	1735.97473	747.77478	779.47205	1730.54163	691.39612	934.9635	1332.67737	689.35754	933.44733	1548.32898	503.45718	947.34509	1381.81885	504.56903	949.74536	1527.46033	700.72333	609.20703	1277.45325	715.32166	476.90408	1297.80847	682.40552	288.92505	1291.10144	679.9505	73.11507	1348.41687	638.23492	42.66389	1403.02454	826.63519	39.85701	1334.23767	638.88123	597.42688	1613.81677	635.83386	438.32654	1599.42297	495.73123	330.06467	1608.5199	356.24875	174.05389	1570.65894	297.57257	176.17526	1519.2124	422.96909	46.12389	1558.81409	704.94153	1714.04834	1434.86316	1973.09399	1023.36768	-3101.91919	2012.57275	1022.00165	-3140.63428	NaN	NaN	NaN	NaN	NaN	NaN
259	2.58	683.78754	1673.51611	1348.20496	728.5611	1680.83716	1452.91711	573.09283	1632.77979	1390.16614	617.5401	1639.59875	1501.43262	547.27832	1432.84619	1423.3269	519.64185	1139.11316	1435.88171	692.43335	1370.78882	1414.80432	741.08185	1216.57947	1410.99451	500.49548	1238.25464	1506.30872	622.93311	1398.24622	1258.09216	591.31317	1211.47021	1178.95325	580.90088	1060.59583	1184.19434	620.12848	953.71277	1159.19055	702.78937	840.38116	1176.96277	647.51221	834.53912	1153.33386	697.92297	764.88806	1145.04944	634.76184	1398.67114	1568.59534	595.62823	1199.14819	1677.68237	605.90277	1074.5144	1683.35291	650.28998	962.20996	1714.26453	744.63245	856.99323	1693.25952	703.64386	853.05402	1734.83374	749.81128	778.75708	1729.56934	696.58246	935.15649	1330.96777	694.76221	933.83807	1546.82581	508.58777	947.41223	1380.50391	509.953	949.16113	1526.03101	704.18683	609.00262	1276.36182	718.3913	476.57877	1296.92505	684.19769	288.77353	1290.51111	680.0838	73.17338	1348.37646	638.27716	42.72396	1403.11023	826.72986	39.70259	1334.2489	650.06573	597.66559	1612.96631	649.59467	438.72147	1598.69922	508.27054	331.95142	1607.42236	366.51694	178.31685	1569.25854	308.34195	180.0255	1517.06921	433.64865	50.42556	1560.05212	711.28436	1714.22559	1432.83496	1973.12036	1023.5661	-3101.91162	2012.47241	1022.08795	-3140.62622	NaN	NaN	NaN	NaN	NaN	NaN
260	2.59	690.08661	1673.64758	1346.34399	734.91589	1681.02344	1451.0072	579.41351	1633.04285	1388.26196	623.83136	1639.79712	1499.46326	553.25146	1433.3584	1421.44531	525.03284	1139.59692	1434.09644	698.49854	1370.82349	1413.1106	746.73822	1216.47803	1409.39087	506.14307	1238.68127	1504.29358	629.34369	1398.26746	1256.29077	598.82538	1211.51978	1176.70386	588.95142	1060.59509	1181.47925	629.34662	953.99237	1156.72083	712.83417	841.48297	1175.38892	657.89368	835.0957	1151.08801	709.11957	766.03735	1143.27747	640.68335	1398.95605	1566.86145	600.64856	1199.50781	1675.74707	610.48065	1074.81787	1681.38391	653.92792	962.27075	1712.6123	747.47528	856.22235	1692.08936	706.35742	852.69611	1733.45276	751.9859	778.21857	1728.71216	701.53833	935.30927	1329.29395	700.13892	934.15143	1545.37439	513.57953	947.4624	1379.31677	515.16534	948.65527	1524.95325	707.73712	608.79523	1275.30762	721.12946	476.22977	1296.05261	686.32117	288.49557	1289.85315	680.19342	72.89477	1348.37585	638.30139	42.74418	1403.16064	826.80756	39.58048	1334.21545	660.98297	598.02417	1611.98035	663.02832	439.3313	1597.84583	520.91986	334.09555	1606.12976	377.77612	182.08038	1567.96362	319.84607	182.7953	1515.17456	445.47815	54.51632	1561.06104	717.65015	1714.36438	1430.91638	1973.07727	1023.55792	-3101.90674	2012.43176	1021.98407	-3140.66406	NaN	NaN	NaN	NaN	NaN	NaN
261	2.6	696.47437	1673.729	1344.64014	741.32056	1681.14832	1449.2135	585.78046	1633.29468	1386.34839	630.20563	1640.06396	1497.62524	559.32837	1433.72278	1419.45459	530.43652	1140.00305	1432.42151	704.41846	1370.8363	1411.4978	752.33795	1216.44751	1407.88806	511.70969	1239.22998	1502.47925	635.65186	1398.21667	1254.61438	606.40448	1211.54907	1174.47998	597.27795	1060.4718	1178.78601	638.75409	954.28796	1154.33667	722.823	842.43823	1173.94177	668.3233	835.64117	1148.88513	720.25262	767.15228	1141.46277	646.44019	1399.06995	1564.99988	605.47266	1199.6969	1673.76587	615.05127	1075.08582	1679.45837	657.52625	962.24365	1710.94312	750.27405	855.43799	1690.88623	708.92346	852.21185	1732.0072	753.99951	777.5304	1727.74036	706.47003	935.51624	1327.60596	705.52252	934.46179	1543.85327	518.43115	947.55664	1378.32983	520.41138	948.06616	1523.86047	711.36316	608.58734	1274.44995	724.08679	475.87021	1295.28821	688.50897	288.26535	1289.18323	680.21936	72.68296	1348.45117	638.19611	42.65987	1403.05371	826.84985	39.48565	1334.23315	671.83966	598.90399	1611.22595	676.31482	440.72073	1597.26978	533.21442	336.21301	1604.61304	389.93051	185.02582	1566.57959	332.05524	185.21318	1513.70776	458.36954	57.90371	1561.49524	724.08386	1714.49365	1429.14087	1973.05737	1023.44806	-3101.98901	2012.51648	1022.09845	-3140.58179	NaN	NaN	NaN	NaN	NaN	NaN
